<?xml version="1.0" standalone="no"?>
<!DOCTYPE svg PUBLIC "-//W3C//DTD SVG 20010904//EN"
 "http://www.w3.org/TR/2001/REC-SVG-20010904/DTD/svg10.dtd">
<svg version="1.0" xmlns="http://www.w3.org/2000/svg"
 width="400.000000pt" height="400.000000pt" viewBox="0 0 400.000000 400.000000"
 preserveAspectRatio="xMidYMid meet">
<metadata>
Created by potrace 1.11, written by Peter Selinger 2001-2013
</metadata>
<g transform="translate(0.000000,400.000000) scale(0.100000,-0.100000)"
fill="#000000" stroke="none">
<path d="M0 2000 l0 -2000 2000 0 2000 0 0 2000 0 2000 -2000 0 -2000 0 0
-2000z m3750 125 l0 -1625 -1625 0 -1625 0 0 1625 0 1625 1625 0 1625 0 0
-1625z"/>
<path d="M1720 2815 l0 -285 -285 0 -285 0 0 -715 0 -715 853 2 852 3 58 27
c79 37 128 78 170 141 69 104 68 86 65 848 l-3 684 -27 58 c-37 79 -78 128
-141 170 -101 67 -99 67 -709 67 l-548 0 0 -285z m850 -715 l0 -420 -420 0
-420 0 0 420 0 420 420 0 420 0 0 -420z"/>
</g>
</svg>
