<?xml version="1.0" standalone="no"?>
<!DOCTYPE svg PUBLIC "-//W3C//DTD SVG 20010904//EN"
 "http://www.w3.org/TR/2001/REC-SVG-20010904/DTD/svg10.dtd">
<svg version="1.0" xmlns="http://www.w3.org/2000/svg"
 width="400.000000pt" height="400.000000pt" viewBox="0 0 400.000000 400.000000"
 preserveAspectRatio="xMidYMid meet">
<metadata>
Created by potrace 1.11, written by Peter Selinger 2001-2013
</metadata>
<g transform="translate(0.000000,400.000000) scale(0.100000,-0.100000)"
fill="#000000" stroke="none">
<path d="M400 2000 l0 -1600 1600 0 1600 0 0 1600 0 1600 -1600 0 -1600 0 0
-1600z m3000 100 l0 -1300 -1300 0 -1300 0 0 1300 0 1300 1300 0 1300 0 0
-1300z"/>
<path d="M1780 2650 l0 -230 -230 0 -230 0 0 -570 0 -571 653 3 652 3 58 27
c79 37 128 78 170 141 67 101 68 108 65 648 l-3 484 -27 58 c-37 79 -78 128
-141 170 -98 65 -115 67 -564 67 l-403 0 0 -230z m680 -570 l0 -340 -340 0
-340 0 0 340 0 340 340 0 340 0 0 -340z"/>
</g>
</svg>
