<?xml version="1.0" standalone="no"?>
<!DOCTYPE svg PUBLIC "-//W3C//DTD SVG 20010904//EN"
 "http://www.w3.org/TR/2001/REC-SVG-20010904/DTD/svg10.dtd">
<svg version="1.0" xmlns="http://www.w3.org/2000/svg"
 width="260.000000pt" height="260.000000pt" viewBox="0 0 260.000000 260.000000"
 preserveAspectRatio="xMidYMid meet">
<metadata>
Created by potrace 1.11, written by Peter Selinger 2001-2013
</metadata>
<g transform="translate(0.000000,260.000000) scale(0.100000,-0.100000)"
fill="#000000" stroke="none">
<path d="M1268 2529 c-263 -38 -649 -223 -821 -393 -58 -57 -67 -62 -99 -58
-21 2 -48 -3 -67 -12 -29 -16 -36 -29 -32 -69 1 -9 -7 -29 -18 -43 -26 -33
-27 -56 -2 -78 19 -18 19 -18 0 -64 -49 -114 -64 -199 -64 -362 1 -205 30
-315 109 -406 l32 -37 -13 -61 c-37 -179 13 -318 136 -376 51 -24 52 -24 46
-61 -8 -49 15 -73 61 -65 18 4 35 2 39 -4 8 -12 55 -13 74 -1 11 7 23 -1 46
-30 85 -107 371 -279 560 -336 85 -26 101 -27 280 -27 189 0 190 0 280 33 288
105 443 266 505 522 24 101 26 265 5 382 -13 73 -12 80 5 110 33 57 51 145 48
244 -1 51 1 96 5 100 4 3 5 21 1 39 -4 25 -1 37 15 53 23 23 28 65 9 78 -7 4
-58 8 -113 9 l-100 1 -6 49 c-5 42 -2 53 18 77 43 53 23 187 -40 261 -33 39
-33 40 -18 70 20 41 27 148 11 185 -7 18 -24 34 -41 40 -21 7 -29 17 -29 33 0
30 -17 48 -46 48 -18 0 -20 4 -16 27 8 42 -18 53 -122 53 -96 0 -192 14 -371
55 -113 26 -169 29 -267 14z m752 -610 c42 -34 68 -95 89 -209 20 -109 20
-113 -18 -122 -24 -7 -44 -5 -73 7 -57 23 -175 37 -199 25 -25 -14 -25 -56 0
-70 11 -5 44 -10 73 -10 l53 0 -45 -29 c-56 -35 -79 -61 -89 -97 -8 -33 -31
-42 -107 -43 -37 -1 -55 4 -65 16 -23 28 -92 52 -167 59 -68 7 -70 7 -50 24
15 12 19 22 14 38 -16 50 -111 35 -211 -33 -47 -32 -79 -44 -150 -58 -112 -23
-235 -70 -264 -101 -18 -19 -35 -25 -78 -28 l-56 -3 6 90 c8 117 26 213 42
229 7 7 55 27 107 45 51 18 135 52 187 77 87 41 93 42 86 21 -22 -73 -14 -97
36 -97 49 0 227 67 353 134 103 54 132 65 191 71 73 7 191 42 253 75 21 10 38
19 40 20 2 0 21 -14 42 -31z m235 -416 c63 -72 65 -77 65 -166 0 -75 -16 -194
-25 -185 -3 3 -75 350 -75 362 0 12 20 6 35 -11z m-111 -70 c8 -80 34 -192 49
-211 11 -14 38 -153 31 -163 -2 -3 -24 -12 -49 -19 -56 -16 -129 -8 -164 17
-38 28 -88 106 -108 170 -17 54 -17 56 2 69 17 13 20 12 28 -8 20 -54 70 -76
98 -42 7 9 13 40 13 69 1 58 -21 95 -57 95 -19 0 -18 3 8 30 27 28 122 73 136
64 3 -2 9 -34 13 -71z m-634 -108 c19 -10 50 -29 69 -44 l33 -25 -7 -79 c-8
-96 -28 -168 -62 -218 -118 -178 -406 -125 -503 94 l-21 46 22 63 c11 34 25
70 29 79 13 24 118 76 180 88 30 6 64 13 75 15 42 10 151 -2 185 -19z m343
-50 c4 -27 16 -76 26 -108 17 -52 17 -58 2 -52 -9 4 -30 9 -47 12 -38 6 -57
-15 -29 -31 52 -31 85 -69 85 -99 0 -65 -63 -86 -140 -47 -47 24 -63 25 -80 5
-29 -35 24 -76 119 -91 89 -14 172 65 158 151 l-6 35 37 -30 c66 -52 160 -62
244 -26 14 6 18 -2 25 -51 4 -32 7 -107 7 -168 -1 -92 -5 -123 -28 -190 -61
-177 -144 -283 -291 -369 -150 -88 -248 -111 -447 -103 -254 9 -432 88 -664
292 -54 48 -114 97 -131 109 -18 11 -36 29 -39 39 -3 9 -18 24 -33 32 -24 12
-27 19 -23 46 l5 32 -70 -7 c-62 -6 -72 -4 -96 14 -45 36 -61 77 -61 160 -1
76 31 199 59 229 20 21 104 -8 162 -58 85 -71 109 -53 93 70 -5 46 -10 98 -10
115 0 32 0 32 58 36 32 2 68 -1 82 -8 14 -6 42 -14 63 -18 29 -6 43 -16 63
-47 13 -22 31 -42 38 -45 8 -3 19 -26 26 -52 15 -64 70 -144 123 -180 159
-110 389 -65 468 91 25 49 49 155 49 222 0 42 6 57 31 89 39 46 61 56 119 53
l45 -2 8 -50z"/>
<path d="M1297 1302 c-20 -22 -23 -102 -6 -150 14 -41 47 -52 70 -24 43 54 28
184 -22 190 -15 2 -32 -5 -42 -16z"/>
<path d="M415 920 c-4 -6 -1 -18 7 -27 7 -9 11 -27 10 -40 -2 -13 2 -31 8 -39
15 -17 51 -19 67 -3 8 8 19 5 41 -11 39 -29 79 -21 88 17 6 22 1 31 -26 55
-56 46 -178 76 -195 48z"/>
<path d="M1919 681 c-34 -36 -57 -52 -84 -57 -45 -8 -105 8 -130 36 -23 25
-47 25 -69 1 -36 -39 8 -90 101 -117 71 -21 135 -6 192 42 41 36 69 98 58 128
-10 24 -18 20 -68 -33z"/>
</g>
</svg>
