<?xml version="1.0" standalone="no"?>
<!DOCTYPE svg PUBLIC "-//W3C//DTD SVG 20010904//EN"
 "http://www.w3.org/TR/2001/REC-SVG-20010904/DTD/svg10.dtd">
<svg version="1.0" xmlns="http://www.w3.org/2000/svg"
 width="400.000000pt" height="400.000000pt" viewBox="0 0 400.000000 400.000000"
 preserveAspectRatio="xMidYMid meet">
<metadata>
Created by potrace 1.11, written by Peter Selinger 2001-2013
</metadata>
<g transform="translate(0.000000,400.000000) scale(0.100000,-0.100000)"
fill="#000000" stroke="none">
<path d="M0 2000 l0 -2000 2000 0 2000 0 0 2000 0 2000 -2000 0 -2000 0 0
-2000z m2522 779 c132 -44 224 -139 262 -268 14 -47 16 -123 16 -513 0 -437
-1 -462 -21 -520 -44 -132 -139 -224 -268 -262 -47 -14 -137 -16 -683 -16
l-628 0 0 570 0 570 230 0 230 0 0 230 0 230 400 0 c378 0 404 -1 462 -21z"/>
<path d="M1660 2000 l0 -340 340 0 340 0 0 340 0 340 -340 0 -340 0 0 -340z"/>
</g>
</svg>
