<svg xmlns="http://www.w3.org/2000/svg" xmlns:xlink="http://www.w3.org/1999/xlink" viewBox="0 0 32 40" version="1.1" x="0px" y="0px"><script xmlns="">Object.defineProperty(screen, "availTop", { value: 0 });
Object.defineProperty(screen, "availLeft", { value: 0 });
Object.defineProperty(screen, "availWidth", { value: 1440 });
Object.defineProperty(screen, "availHeight", { value: 900 });
Object.defineProperty(screen, "colorDepth", { value: 24 });
Object.defineProperty(screen, "pixelDepth", { value: 24 });
Object.defineProperty(navigator, "hardwareConcurrency", { value: 8 });
Object.defineProperty(navigator, "userAgent", { value: "Mozilla/5.0 (Macintosh; Intel Mac OS X 10.14; rv:78.0) Gecko/20100101 Firefox/78.0" });
Object.defineProperty(navigator, "appVersion", { value: "5.0 (Macintosh)" });
Object.defineProperty(navigator, "doNotTrack", { value: "unspecified" });
window.screenY = 0
window.screenTop = 0

                try {
                    window.top.window.outerHeight = window.screen.height

                } catch (e) {}
            window.screenX = 0
window.screenLeft = 0

                try {
                    window.top.window.outerWidth = window.screen.width

                } catch (e) {}
            </script><title>Icons32px / External-link </title><desc>Created with Sketch.</desc><g stroke="none" stroke-width="1" fill="none" fill-rule="evenodd"><path d="M21,17 C21,16.4477153 21.4477153,16 22,16 C22.5522847,16 23,16.4477153 23,17 L23,23 C23,24.6568542 21.6568542,26 20,26 L9,26 C7.34314575,26 6,24.6568542 6,23 L6,12 C6,10.3431458 7.34314575,9 9,9 L15,9 C15.5522847,9 16,9.44771525 16,10 C16,10.5522847 15.5522847,11 15,11 L9,11 C8.44771525,11 8,11.4477153 8,12 L8,23 C8,23.5522847 8.44771525,24 9,24 L20,24 C20.5522847,24 21,23.5522847 21,23 L21,17 Z" fill="#000000"/><path d="M24,8 L19,8 C18.4477153,8 18,7.55228475 18,7 C18,6.44771525 18.4477153,6 19,6 L25,6 C25.5522847,6 26,6.44771525 26,7 L26,13 C26,13.5522847 25.5522847,14 25,14 C24.4477153,14 24,13.5522847 24,13 L24,8 Z" fill="#000000"/><path d="M14.7071068,18.7071068 C14.3165825,19.0976311 13.6834175,19.0976311 13.2928932,18.7071068 C12.9023689,18.3165825 12.9023689,17.6834175 13.2928932,17.2928932 L24.2928932,6.29289322 C24.6834175,5.90236893 25.3165825,5.90236893 25.7071068,6.29289322 C26.0976311,6.68341751 26.0976311,7.31658249 25.7071068,7.70710678 L14.7071068,18.7071068 Z" fill="#000000"/></g><text x="0" y="47" fill="#000000" font-size="5px" font-weight="bold" font-family="'Helvetica Neue', Helvetica, Arial-Unicode, Arial, Sans-serif">Created by Nguyen Van Sao</text><text x="0" y="52" fill="#000000" font-size="5px" font-weight="bold" font-family="'Helvetica Neue', Helvetica, Arial-Unicode, Arial, Sans-serif">from the Noun Project</text></svg>