<svg width="100" height="100" viewBox="0 0 100 100" fill="none" xmlns="http://www.w3.org/2000/svg">
<path d="M86.625 84.361C86.625 85.6113 85.6112 86.6248 84.3617 86.6248H15.6391C14.3887 86.6248 13.3755 85.6113 13.3755 84.361V15.6388C13.3755 14.3883 14.3885 13.3752 15.6391 13.3752H84.3617C85.6117 13.3752 86.625 14.3883 86.625 15.6388V84.361Z" fill="white" stroke="black" stroke-width="4"/>
<path d="M64.6759 88.6248V58.7095H74.717L76.2206 47.051H64.6759V39.6078C64.6759 36.2324 65.6132 33.9322 70.4535 33.9322L76.627 33.9295V23.502C75.5593 23.3599 71.8946 23.0425 67.6311 23.0425C58.7301 23.0425 52.6363 28.4756 52.6363 38.4532V47.051H42.5693V58.7095H52.6363V88.6248H64.6759Z" fill="black"/>
<path d="M94 5.5L6 93.5" stroke="black" stroke-opacity="0.7" stroke-width="8"/>
<path d="M6 5.5L94 93.5" stroke="black" stroke-opacity="0.7" stroke-width="8"/>
</svg>
