<svg width="206" height="286" viewBox="0 0 206 286" fill="none" xmlns="http://www.w3.org/2000/svg">
<path d="M8.22998 97.6719V97.67C8.22998 48.4989 50.2861 8 103 8C155.725 8 197.77 48.5092 197.77 97.46L197.77 97.4619C197.775 116.427 191.498 134.86 179.92 149.881L178.793 151.344L178.473 153.162C178.242 154.476 177.805 155.745 177.177 156.922C177.176 156.924 177.175 156.925 177.174 156.927L116.505 270.172C115.149 272.536 113.195 274.504 110.838 275.877C108.459 277.263 105.754 277.994 103 277.994C100.246 277.994 97.5412 277.263 95.1616 275.877C92.8045 274.503 90.85 272.535 89.4933 270.169L28.8256 157.137C28.8248 157.135 28.8239 157.134 28.823 157.132C28.1951 155.955 27.7577 154.686 27.5269 153.372L27.2074 151.554L26.0802 150.091C14.5021 135.07 8.22521 116.637 8.22998 97.6719ZM185.86 154.46C198.45 138.126 205.275 118.083 205.27 97.46L183.79 160.46C184.793 158.582 185.492 156.557 185.86 154.46ZM51.67 99.62C51.67 125.752 73.8767 146.3 100.42 146.3C126.963 146.3 149.17 125.752 149.17 99.62C149.17 73.4884 126.963 52.94 100.42 52.94C73.8767 52.94 51.67 73.4884 51.67 99.62Z" fill="white" stroke="black" stroke-width="15"/>
</svg>
