<svg width="100" height="100" viewBox="0 0 100 100" fill="none" xmlns="http://www.w3.org/2000/svg">
<path d="M79.125 91H24.875C16.65 91 10 84.3419 10 76.1068V23.8932C10 15.6581 16.65 9 24.875 9H79.125C87.35 9 94 15.6581 94 23.8932V76.1068C94 84.3419 87.35 91 79.125 91Z" fill="black"/>
<path d="M77.795 87.4958H26.205C19.205 87.4958 13.5 81.7839 13.5 74.7403V25.26C13.5 18.2164 19.205 12.5044 26.205 12.5044H77.76C84.795 12.5044 90.465 18.2164 90.465 25.2249V74.7403C90.5 81.7839 84.795 87.4958 77.795 87.4958Z" fill="white"/>
<path d="M30.2998 28.2034C30.2998 27.9581 30.7898 27.7829 31.0698 27.7829C33.3098 27.6778 36.6348 27.6077 40.0998 27.6077C49.7948 27.6077 53.5748 32.9342 53.5748 39.7675C53.5748 48.6683 47.1348 52.488 39.2248 52.488C37.8948 52.488 37.4398 52.4179 36.4948 52.4179V65.8743C36.4948 66.1547 36.3898 66.2948 36.0748 66.2948H30.7198C30.4398 66.2948 30.2998 66.1897 30.2998 65.8743V28.2034ZM36.5298 46.8111C37.3348 46.8812 37.9648 46.8812 39.3648 46.8812C43.4598 46.8812 47.3098 45.4444 47.3098 39.8726C47.3098 35.4222 44.5448 33.1795 39.8898 33.1795C38.4898 33.1795 37.1598 33.2495 36.5298 33.2846V46.8111ZM66.6298 42.641C63.8648 42.641 62.9198 44.0427 62.9198 45.1991C62.9198 46.4607 63.5498 47.3367 67.2598 49.2641C72.7548 51.9273 74.4698 54.4854 74.4698 58.235C74.4698 63.8418 70.1998 66.8555 64.4248 66.8555C61.3798 66.8555 58.7548 66.2248 57.2498 65.3487C57.0048 65.2436 56.9698 65.0683 56.9698 64.788V59.6367C56.9698 59.2863 57.1448 59.1812 57.3898 59.3564C59.5948 60.7931 62.1148 61.4239 64.4248 61.4239C67.1898 61.4239 68.3448 60.2675 68.3448 58.6906C68.3448 57.429 67.5398 56.3077 64.0048 54.4854C59.0348 52.1025 56.9698 49.6846 56.9698 45.6547C56.9698 41.1342 60.5048 37.3846 66.6298 37.3846C69.6398 37.3846 71.7398 37.8401 72.8948 38.3658C73.1748 38.541 73.2448 38.8213 73.2448 39.0666V43.8675C73.2448 44.1478 73.0698 44.323 72.7198 44.2179C71.1798 43.2367 68.9048 42.641 66.6298 42.641Z" fill="black"/>
<path d="M94 5.5L6 93.5" stroke="black" stroke-opacity="0.7" stroke-width="8"/>
<path d="M6 5.5L94 93.5" stroke="black" stroke-opacity="0.7" stroke-width="8"/>
</svg>
