<?xml version="1.0" standalone="no"?>
<!DOCTYPE svg PUBLIC "-//W3C//DTD SVG 20010904//EN"
 "http://www.w3.org/TR/2001/REC-SVG-20010904/DTD/svg10.dtd">
<svg version="1.0" xmlns="http://www.w3.org/2000/svg"
 width="400.000000pt" height="400.000000pt" viewBox="0 0 400.000000 400.000000"
 preserveAspectRatio="xMidYMid meet">
<metadata>
Created by potrace 1.11, written by Peter Selinger 2001-2013
</metadata>
<g transform="translate(0.000000,400.000000) scale(0.100000,-0.100000)"
fill="#000000" stroke="none">
<path d="M0 2000 l0 -2000 2000 0 2000 0 0 2000 0 2000 -2000 0 -2000 0 0
-2000z m2801 1004 c78 -37 136 -87 178 -152 61 -95 61 -97 61 -859 0 -676 -1
-694 -21 -756 -25 -77 -77 -148 -144 -199 -103 -78 -35 -73 -1027 -76 l-888
-3 0 741 0 740 300 0 300 0 0 300 0 301 588 -3 587 -3 66 -31z"/>
<path d="M1560 2000 l0 -440 440 0 440 0 0 440 0 440 -440 0 -440 0 0 -440z"/>
</g>
</svg>
