<?xml version="1.0" standalone="no"?>
<!DOCTYPE svg PUBLIC "-//W3C//DTD SVG 20010904//EN"
 "http://www.w3.org/TR/2001/REC-SVG-20010904/DTD/svg10.dtd">
<svg version="1.0" xmlns="http://www.w3.org/2000/svg"
 width="400.000000pt" height="400.000000pt" viewBox="0 0 400.000000 400.000000"
 preserveAspectRatio="xMidYMid meet">
<metadata>
Created by potrace 1.11, written by Peter Selinger 2001-2013
</metadata>
<g transform="translate(0.000000,400.000000) scale(0.100000,-0.100000)"
fill="#000000" stroke="none">
<path d="M400 2000 l0 -1600 1600 0 1600 0 0 1600 0 1600 -1600 0 -1600 0 0
-1600z m2960 0 l0 -1360 -1360 0 -1360 0 0 1360 0 1360 1360 0 1360 0 0 -1360z"/>
<path d="M1660 2571 l0 -231 -230 0 -230 0 0 -570 0 -571 648 3 c588 3 651 5
692 21 100 38 198 139 236 240 18 49 19 81 19 542 l0 490 -32 67 c-44 93 -100
151 -191 196 l-76 37 -418 3 -418 3 0 -230z m680 -571 l0 -340 -340 0 -340 0
0 340 0 340 340 0 340 0 0 -340z"/>
</g>
</svg>
